<?xml version="1.0" encoding="utf-8"?>
<!-- Generator: Adobe Illustrator 25.3.1, SVG Export Plug-In . SVG Version: 6.00 Build 0)  -->
<svg version="1.1"
	 id="svg4" sodipodi:docname="cre.render.reload.svg" xmlns:cc="http://creativecommons.org/ns#" xmlns:dc="http://purl.org/dc/elements/1.1/" xmlns:inkscape="http://www.inkscape.org/namespaces/inkscape" xmlns:rdf="http://www.w3.org/1999/02/22-rdf-syntax-ns#" xmlns:sodipodi="http://sodipodi.sourceforge.net/DTD/sodipodi-0.dtd" xmlns:svg="http://www.w3.org/2000/svg"
	 xmlns="http://www.w3.org/2000/svg" xmlns:xlink="http://www.w3.org/1999/xlink" x="0px" y="0px" viewBox="0 0 48 48"
	 style="enable-background:new 0 0 48 48;" xml:space="preserve">
<sodipodi:namedview  bordercolor="#666666" borderopacity="1" gridtolerance="10" guidetolerance="10" id="namedview7" inkscape:current-layer="svg4" inkscape:cx="26.870058" inkscape:cy="24.748737" inkscape:deskcolor="#d1d1d1" inkscape:document-rotation="0" inkscape:pagecheckerboard="0" inkscape:pageopacity="0" inkscape:pageshadow="2" inkscape:showpageshadow="2" inkscape:snap-page="true" inkscape:window-height="1381" inkscape:window-maximized="1" inkscape:window-width="2560" inkscape:window-x="0" inkscape:window-y="0" inkscape:zoom="22.627417" objecttolerance="10" pagecolor="#ffffff" showgrid="true" showguides="true">
	<inkscape:grid  empspacing="4" id="grid893" originx="0" originy="0" type="xygrid"></inkscape:grid>
</sodipodi:namedview>
<sodipodi:namedview  bordercolor="#666666" borderopacity="1" gridtolerance="10" guidetolerance="10" id="namedview7" inkscape:current-layer="svg4" inkscape:cx="26.870058" inkscape:cy="24.748737" inkscape:deskcolor="#d1d1d1" inkscape:document-rotation="0" inkscape:pagecheckerboard="0" inkscape:pageopacity="0" inkscape:pageshadow="2" inkscape:showpageshadow="2" inkscape:snap-page="true" inkscape:window-height="1381" inkscape:window-maximized="1" inkscape:window-width="2560" inkscape:window-x="0" inkscape:window-y="0" inkscape:zoom="22.627417" objecttolerance="10" pagecolor="#ffffff" showgrid="true" showguides="true">
	<inkscape:grid  empspacing="4" id="grid893" originx="0" originy="0" type="xygrid"></inkscape:grid>
</sodipodi:namedview>
<g>
	<path d="M26.2,16.8l3.4-3.7c-1.8-0.5-3.7-0.7-5.6-0.7c-5.6,0-10.8,2.1-14.8,5.7l2.5,3.3c3.5-3.1,7.9-4.7,12.4-4.7
		C24.7,16.7,25.5,16.7,26.2,16.8z"/>
	<path d="M23.7,19.5L23.7,19.5c0.1,0,0.2,0,0.3,0L23.7,19.5z"/>
	<path d="M23.7,19.5c-3.9,0.1-7.6,1.6-10.4,4.1l2.5,3.3c0.9-0.8,1.8-1.4,2.9-1.9v0L23.7,19.5z"/>
	<path d="M24,33.6c-0.9,0-1.8,0.4-2.5,0.9l2.5,3.3l2.5-3.3C25.8,34,24.9,33.6,24,33.6z"/>
	<path d="M37.9,12.1l-1.9-2l-23.2,25l1.9,2l4.8-5.2l0.3,0.4c1.2-1,2.6-1.6,4.1-1.6c1.5,0,3,0.6,4.1,1.6l2.5-3.3
		c-1.7-1.5-3.8-2.4-6.1-2.5l2.3-2.5c2,0.5,3.8,1.4,5.4,2.8l2.5-3.3c-1.4-1.2-3-2.2-4.7-2.9l2-2.2c1.6,0.8,3,1.7,4.3,2.9l2.5-3.3
		c-1.2-1-2.5-2-3.9-2.7L37.9,12.1z"/>
</g>
</svg>
