<?xml version="1.0" encoding="utf-8"?>
<!-- Generator: Adobe Illustrator 25.3.1, SVG Export Plug-In . SVG Version: 6.00 Build 0)  -->
<svg version="1.1"
	 id="svg4" sodipodi:docname="cre.render.reload.svg" xmlns:cc="http://creativecommons.org/ns#" xmlns:dc="http://purl.org/dc/elements/1.1/" xmlns:inkscape="http://www.inkscape.org/namespaces/inkscape" xmlns:rdf="http://www.w3.org/1999/02/22-rdf-syntax-ns#" xmlns:sodipodi="http://sodipodi.sourceforge.net/DTD/sodipodi-0.dtd" xmlns:svg="http://www.w3.org/2000/svg"
	 xmlns="http://www.w3.org/2000/svg" xmlns:xlink="http://www.w3.org/1999/xlink" x="0px" y="0px" viewBox="0 0 48 48"
	 style="enable-background:new 0 0 48 48;" xml:space="preserve">
<g id="g9367_1_" transform="matrix(1.25,0,0,1.25,-39,5.75)" inkscape:label="sync_circle">
	<path id="path8999_1_" sodipodi:nodetypes="ccccccccccccccccccc" d="M44.3,16.6c0.3,0.9,0.8,1.7,1.5,2.4c2.5,2.5,6.6,2.5,9.2,0
		l-2.3-2.3l7-0.1l-0.1,7l-2.3-2.3c-3.8,3.8-10,3.8-13.8,0c-1.3-1.3-2.2-2.9-2.6-4.7 M57.3,7.6c1.3,1.3,2.2,2.9,2.6,4.7l-3.4,0
		c-0.3-0.9-0.8-1.7-1.5-2.4c-2.5-2.5-6.6-2.5-9.2,0l2.3,2.3h-6.9V5.3l2.3,2.3C47.3,3.8,53.5,3.8,57.3,7.6z"/>
</g>
<sodipodi:namedview  bordercolor="#666666" borderopacity="1" gridtolerance="10" guidetolerance="10" id="namedview7" inkscape:current-layer="svg4" inkscape:cx="26.870058" inkscape:cy="24.748737" inkscape:deskcolor="#d1d1d1" inkscape:document-rotation="0" inkscape:pagecheckerboard="0" inkscape:pageopacity="0" inkscape:pageshadow="2" inkscape:showpageshadow="2" inkscape:snap-page="true" inkscape:window-height="1381" inkscape:window-maximized="1" inkscape:window-width="2560" inkscape:window-x="0" inkscape:window-y="0" inkscape:zoom="22.627417" objecttolerance="10" pagecolor="#ffffff" showgrid="true" showguides="true">
	<inkscape:grid  empspacing="4" id="grid893" originx="0" originy="0" type="xygrid"></inkscape:grid>
</sodipodi:namedview>
<sodipodi:namedview  bordercolor="#666666" borderopacity="1" gridtolerance="10" guidetolerance="10" id="namedview7" inkscape:current-layer="svg4" inkscape:cx="26.870058" inkscape:cy="24.748737" inkscape:deskcolor="#d1d1d1" inkscape:document-rotation="0" inkscape:pagecheckerboard="0" inkscape:pageopacity="0" inkscape:pageshadow="2" inkscape:showpageshadow="2" inkscape:snap-page="true" inkscape:window-height="1381" inkscape:window-maximized="1" inkscape:window-width="2560" inkscape:window-x="0" inkscape:window-y="0" inkscape:zoom="22.627417" objecttolerance="10" pagecolor="#ffffff" showgrid="true" showguides="true">
	<inkscape:grid  empspacing="4" id="grid893" originx="0" originy="0" type="xygrid"></inkscape:grid>
</sodipodi:namedview>
</svg>
