<?xml version="1.0" encoding="utf-8"?>
<!-- Generator: Adobe Illustrator 25.3.1, SVG Export Plug-In . SVG Version: 6.00 Build 0)  -->
<svg version="1.1"
	 id="svg4" sodipodi:docname="cre.render.reload.svg" xmlns:cc="http://creativecommons.org/ns#" xmlns:dc="http://purl.org/dc/elements/1.1/" xmlns:inkscape="http://www.inkscape.org/namespaces/inkscape" xmlns:rdf="http://www.w3.org/1999/02/22-rdf-syntax-ns#" xmlns:sodipodi="http://sodipodi.sourceforge.net/DTD/sodipodi-0.dtd" xmlns:svg="http://www.w3.org/2000/svg"
	 xmlns="http://www.w3.org/2000/svg" xmlns:xlink="http://www.w3.org/1999/xlink" x="0px" y="0px" viewBox="0 0 48 48"
	 style="enable-background:new 0 0 48 48;" xml:space="preserve">
<g id="g9367_1_" transform="matrix(1.25,0,0,1.25,-39,5.75)" inkscape:label="sync_circle">
	<path id="path8999_1_" sodipodi:nodetypes="ccccccccccccccccccc" d="M47.6,20.3c0.9,0.4,1.8,0.6,2.8,0.6c3.6,0,6.5-2.9,6.5-6.5
		h-3.2l4.9-5.1l4.9,5.1h-3.2c0,5.4-4.4,9.7-9.7,9.7c-1.8,0-3.6-0.5-5.2-1.5 M50.4,4.7c1.8,0,3.6,0.5,5.2,1.5l-2.4,2.4
		C52.3,8.2,51.4,8,50.4,8c-3.6,0-6.5,2.9-6.5,6.5h3.2l-4.9,4.9l-4.9-4.9h3.2C40.7,9.1,45,4.7,50.4,4.7z"/>
</g>
<sodipodi:namedview  bordercolor="#666666" borderopacity="1" gridtolerance="10" guidetolerance="10" id="namedview7" inkscape:current-layer="svg4" inkscape:cx="26.870058" inkscape:cy="24.748737" inkscape:deskcolor="#d1d1d1" inkscape:document-rotation="0" inkscape:pagecheckerboard="0" inkscape:pageopacity="0" inkscape:pageshadow="2" inkscape:showpageshadow="2" inkscape:snap-page="true" inkscape:window-height="1381" inkscape:window-maximized="1" inkscape:window-width="2560" inkscape:window-x="0" inkscape:window-y="0" inkscape:zoom="22.627417" objecttolerance="10" pagecolor="#ffffff" showgrid="true" showguides="true">
	<inkscape:grid  empspacing="4" id="grid893" originx="0" originy="0" type="xygrid"></inkscape:grid>
</sodipodi:namedview>
<sodipodi:namedview  bordercolor="#666666" borderopacity="1" gridtolerance="10" guidetolerance="10" id="namedview7" inkscape:current-layer="svg4" inkscape:cx="26.870058" inkscape:cy="24.748737" inkscape:deskcolor="#d1d1d1" inkscape:document-rotation="0" inkscape:pagecheckerboard="0" inkscape:pageopacity="0" inkscape:pageshadow="2" inkscape:showpageshadow="2" inkscape:snap-page="true" inkscape:window-height="1381" inkscape:window-maximized="1" inkscape:window-width="2560" inkscape:window-x="0" inkscape:window-y="0" inkscape:zoom="22.627417" objecttolerance="10" pagecolor="#ffffff" showgrid="true" showguides="true">
	<inkscape:grid  empspacing="4" id="grid893" originx="0" originy="0" type="xygrid"></inkscape:grid>
</sodipodi:namedview>
</svg>
